<svg xmlns="http://www.w3.org/2000/svg" width="20" height="15" viewBox="0 0 20 15">
    <g fill="none" fill-rule="nonzero">
        <path fill="#D80027" d="M7.579.958C4.547 1.316 3.032 1.505 0 .653V13.81c3.032.852 4.547.663 7.579.305 4.863-.569 7.295-1.663 12.158-.305V.653C14.874-.705 12.442.389 7.579.958z"/>
        <path fill="#FFDA44" d="M9.863 3.432L10.737 6a42.36 42.36 0 0 1 2.831-.326 73.47 73.47 0 0 0-2.284 1.915l.874 2.58c-.916-.558-1.369-.822-2.284-1.358C8.958 9.6 8.505 10 7.589 10.779l.832-2.81a67.063 67.063 0 0 1-2.284-1.411 44.018 44.018 0 0 0 2.831-.326l.895-2.8z"/>
    </g>
</svg>
