<svg xmlns="http://www.w3.org/2000/svg" width="20" height="15" viewBox="0 0 20 15">
    <g fill="none" fill-rule="nonzero">
        <path fill="#D80027" d="M0 13.8V.642c7.895 2.21 11.842-2.21 19.737 0V13.8C11.842 11.579 7.895 16.01 0 13.8z"/>
        <path fill="#F0F0F0" d="M10.526 5.516c-.147.642-.41.558-.547 1.126a1.232 1.232 0 0 1-1.053-1.579 1.674 1.674 0 0 1 1.727-1.295c-.242 1.116.031 1.18-.127 1.748zM8.558 6.253c.547.263.347.505.82.726a1.547 1.547 0 0 1-2.01.737A1.347 1.347 0 0 1 6.895 5.8c1 .516 1.168.221 1.663.453zM8.421 8.316c.484-.474.632-.242 1.053-.663.494.62.406 1.52-.2 2.031a1.41 1.41 0 0 1-2.021.095c.852-.81.684-1.032 1.168-1.463zM10.263 8.853c-.242-.558 0-.653-.168-1.148a1.295 1.295 0 0 1 1.863.527 1.59 1.59 0 0 1-.78 1.968c-.42-.968-.652-.842-.915-1.347zM11.579 7.137c-.642.126-.61-.158-1.158 0a1.674 1.674 0 0 1 1.316-1.716 1.253 1.253 0 0 1 1.558 1.105c-1.116.19-1.127.485-1.716.61z"/>
    </g>
</svg>
