<svg xmlns="http://www.w3.org/2000/svg" width="20" height="15" viewBox="0 0 20 15">
    <g fill="none" fill-rule="nonzero">
        <path fill="#F0F0F0" d="M0 .726c7.895 2.21 11.842-2.21 19.737 0v13.158c-7.895-2.252-11.842 2.21-19.737 0V.726z"/>
        <path fill="#D80027" d="M0 .726c2.149.517 4.365.695 6.568.527v13.2A15.032 15.032 0 0 1 0 13.884V.726zM13.158.179a15.021 15.021 0 0 1 6.579.547v13.158a16.895 16.895 0 0 0-6.58-.516V.178zM11.105 8.053l1.232-.769-.621-.231v-.621l-1.19.779.621-1.316-.62.084-.622-.842-.62 1.052-.622.085.59 1.147-1.232-.495v.621l-.653.38 1.232.462-.305.653 1.231-.168V9.8l.621-.084V8.8l1.232-.168z"/>
    </g>
</svg>
