<svg xmlns="http://www.w3.org/2000/svg" width="20" height="15" viewBox="0 0 20 15">
    <g fill="none" fill-rule="nonzero">
        <path fill="#D80027" d="M0 .642c7.895 2.21 11.842-2.21 19.737 0V13.8C11.842 11.579 7.895 16.01 0 13.8V.642z"/>
        <path fill="#FFDA44" d="M6.895 5.032l.568 1.673 1.832-.231L7.81 7.747l.61 1.664-1.526-.895c-.59.495-.884.726-1.484 1.19l.568-1.78c-.59-.39-.884-.59-1.484-1.052.726 0 1.052 0 1.831-.095l.569-1.747zM10.453 10.358l-.558-.326-.548.494.21-.684-.546-.368.684-.095.21-.684.21.62.685-.094-.558.484zM11.905 8.179l-.684.084-.21.684-.211-.62-.695.094.558-.484-.21-.621.558.326.568-.484-.21.684zM11.905 5.716l-.558.473.21.622L11 6.484l-.558.474.21-.684-.547-.327.684-.094.211-.685.21.621zM10.453 3.916l-.21.684.557.326-.684.095-.21.684-.211-.62-.684.094.557-.484-.21-.621.558.326z"/>
    </g>
</svg>
