<svg xmlns="http://www.w3.org/2000/svg" width="20" height="15" viewBox="0 0 20 15">
    <g fill="none" fill-rule="nonzero">
        <path fill="#D80027" d="M0 .642c7.895 2.21 11.842-2.21 19.737 0V13.8C11.842 11.579 7.895 16 0 13.8V.642z"/>
        <path fill="#0052B4" d="M0 .642c3.947 1.053 5.916.547 9.863 0v6.58c-3.947.546-5.916 1.052-9.863 0V.641z"/>
        <path fill="#F0F0F0" d="M7.19 4.274l-.874.526.495.842-1-.105-.127 1.052-.695-.705-.778.716-.127-1.053c-.4.074-.6.106-1 .158l.495-.873-.916-.485.916-.379-.421-.81c.4.095.6.147 1 .22l.053-1.062.694.726.695-.779.126 1.053 1-.274-.41.884.873.348z"/>
        <path fill="#0052B4" d="M4.937 3.326A1.053 1.053 0 0 1 6.053 4.38a1.19 1.19 0 0 1-1.116 1.19A1.053 1.053 0 0 1 3.82 4.452c.006-.616.5-1.115 1.116-1.127z"/>
        <path fill="#F0F0F0" d="M4.937 5.19a.726.726 0 0 1-.726-.727.768.768 0 0 1 .747-.758.705.705 0 0 1 .747.706.79.79 0 0 1-.768.778z"/>
    </g>
</svg>
