<svg xmlns="http://www.w3.org/2000/svg" width="20" height="15" viewBox="0 0 20 15">
    <g fill="none" fill-rule="nonzero">
        <path fill="#F0F0F0" d="M0 .59c1.66.498 3.4.673 5.126.515C9.074.937 11.053.168 15 .053a13.221 13.221 0 0 1 4.737.526v13.158A13.221 13.221 0 0 0 15 13.21c-1.656.064-3.305.24-4.937.526a43.358 43.358 0 0 1-4.937.537A13.547 13.547 0 0 1 0 13.737V.589z"/>
        <path fill="#D80027" d="M0 2.242c7.895 2.21 11.842-2.21 19.737 0v1.642c-7.895-2.21-11.842 2.21-19.737 0V2.242zM0 5.526c7.895 2.21 11.842-2.21 19.737 0v1.642c-7.895-2.21-11.842 2.21-19.737 0V5.526zM0 8.821c7.895 2.21 11.842-2.21 19.737 0v1.642c-7.895-2.21-11.842 2.221-19.737 0V8.821zM0 12.105c7.895 2.21 11.842-2.21 19.737 0v1.632C12 12 7.895 15.957 0 13.737v-1.632z"/>
        <path fill="#2E52B2" d="M0 .59C4 1.5 6 1 9.874.59v7.084c-3.948.558-5.927 1.105-9.863 0L0 .589z"/>
        <path fill="#F0F0F0" d="M3.853 4.021l-.158.484-.537-.01.42.316-.146.505.42-.295.411.295-.158-.495.421-.305h-.515zM4.01 6.284l-.157-.495-.158.485-.537-.021.42.315-.157.485.421-.295.41.305-.147-.484.421-.305zM1.832 6.126l-.158-.515-.158.463-.463-.085.42.38-.157.463.42-.232.37.347-.159-.505.421-.253zM1.674 3.853l-.158.41h-.463l.42.38-.157.462.42-.231.37.315-.159-.505.421-.252-.515-.064zM3.853 2.263l-.158.484-.537-.02.42.315-.157.484.432-.315.41.305-.158-.463.421-.306h-.515zM1.674 2.084l-.158.463-.463-.084.42.38-.157.462.42-.231.37.347-.159-.505.421-.253-.515-.063zM6.021 3.947l-.158.506h-.516l.421.273-.157.495.42-.326.411.263-.126-.432.42-.337h-.515zM6.179 6.19l-.158-.474-.158.505h-.516l.421.274-.157.494.42-.326.411.263-.126-.442.42-.337zM8.347 5.958l-.158-.474-.157.505-.516.064.42.252-.157.506.421-.358.41.252-.189-.463.421-.358zM8.19 3.726l-.158.537h-.516l.42.253-.157.505.421-.358.41.253-.189-.432.421-.358-.516.063zM6.021 2.158l-.158.505h-.516l.421.274-.157.495.41-.221.41.263-.115-.516.42-.337h-.515zM8.19 1.958l-.158.505-.516.063.42.253-.157.505.421-.358.41.285-.189-.495.421-.358-.516.063z"/>
    </g>
</svg>
