<svg xmlns="http://www.w3.org/2000/svg" width="20" height="15" viewBox="0 0 20 15">
    <g fill="none" fill-rule="nonzero">
        <path fill="#F0F0F0" d="M0 .642c7.895 2.21 11.842-2.21 19.737 0V13.8C11.842 11.579 7.895 16 0 13.8V.642z"/>
        <path fill="#0052B4" d="M19.737.642v6.58c-3.948-1.054-5.916-.548-9.863 0C5.916 5.136 3.947 4.378 0 .641c7.895 2.21 11.842-2.21 19.737 0z"/>
        <path fill="#D80027" d="M19.737 7.221V13.8C11.842 11.579 7.895 16 0 13.8c3.947-1.526 5.916-3.39 9.863-6.579 3.948-.558 5.926-1.105 9.874 0z"/>
        <path fill="#FFDA44" d="M6.242 7.653L5.19 7.232l.558-1.053c-.484.137-.684.137-1.136.274l-.148-1.19-.8.842-.79-.842L2.727 6.4c-.452-.126-.684-.19-1.147-.347l.558 1.052c-.421.148-.632.221-1.053.337.421.274.632.41 1.053.653l-.558.947c.453 0 .684 0 1.147-.084l.148 1.168.8-.81.8.852.147-1.157c.453.073.684.115 1.147.168l-.557-.99 1.031-.536zM.842 2.105l.347.558.569-.084-.358.432.347.547-.568-.284-.358.41v-.62l-.558-.327h.569zM.842 11.179l.347.558.569-.084-.358.431.347.548-.568-.285-.358.41v-.6l-.568-.325H.82zM8.105 6.663l-.347.537-.569-.116.358.442-.347.527.568-.253.358.442v-.6l.558-.274-.568-.105z"/>
    </g>
</svg>
