<svg xmlns="http://www.w3.org/2000/svg" width="20" height="15" viewBox="0 0 20 15">
    <g fill="none" fill-rule="nonzero">
        <path fill="#F0F0F0" d="M0 .642c7.895 2.21 11.842-2.21 19.737 0V13.8C11.842 11.579 7.895 16.01 0 13.8V.642z"/>
        <path fill="#D80027" d="M0 2.284c7.895 2.21 11.842-2.21 19.737 0v1.642c-7.895-2.21-11.842 2.21-19.737 0V2.284zM0 5.568c7.895 2.21 11.842-2.21 19.737 0v1.653C11.842 5.011 7.895 9.474 0 7.221V5.568zM0 8.863c7.895 2.21 11.842-2.21 19.737 0v1.663c-7.895-2.231-11.842 2.19-19.737 0V8.863zM0 12.147c7.895 2.21 11.842-2.21 19.737 0v1.642C11.842 11.58 7.895 16.011 0 13.8v-1.653z"/>
        <path fill="#0052B4" d="M0 .642c3.947 1.053 5.916.547 9.863 0v7.084c-3.947.548-5.916 1.053-9.863 0V.642z"/>
        <path fill="#FFDA44" d="M5.432 6.316A1.568 1.568 0 0 1 3.8 4.706a1.684 1.684 0 0 1 1.632-1.653c.264-.03.531.007.779.105a1.99 1.99 0 0 0-1.4-.495 1.99 1.99 0 0 0-2 1.958 2.01 2.01 0 0 0 2 2.042 2.01 2.01 0 0 0 1.4-.61 1.632 1.632 0 0 1-.78.263z"/>
        <path fill="#FFDA44" d="M5.895 3.505l.284.58.653-.211-.295.631.526.369-.652.21v.674l-.516-.39-.527.453v-.663l-.652-.126.547-.432-.316-.59.653.116z"/>
    </g>
</svg>
