<svg xmlns="http://www.w3.org/2000/svg" width="20" height="15" viewBox="0 0 20 15">
    <g fill="none" fill-rule="nonzero">
        <path fill="#F0F0F0" d="M0 .642c7.895 2.21 11.842-2.21 19.737 0V13.8C11.842 11.579 7.895 16 0 13.8V.642z"/>
        <path fill="#0052B4" d="M0 4.832c7.895 2.21 11.842-2.21 19.737 0V9.61C11.842 7.368 7.895 11.81 0 9.6V4.832z"/>
        <path fill="#D80027" d="M0 .642c7.895 2.21 11.842-2.21 19.737 0v2.105C11.842.527 7.895 4.947 0 2.737V.642zM0 11.695c7.895 2.21 11.842-2.21 19.737 0V13.8C11.842 11.579 7.895 16.01 0 13.8v-2.105z"/>
    </g>
</svg>
