<svg xmlns="http://www.w3.org/2000/svg" width="20" height="15" viewBox="0 0 20 15">
    <g fill="none" fill-rule="nonzero">
        <path fill="#F0F0F0" d="M0 .642c7.895 2.21 11.842-2.21 19.737 0V13.8C11.842 11.579 7.895 16 0 13.8V.642z"/>
        <path fill="#D80027" d="M0 .642c7.895 2.21 11.842-2.21 19.737 0v6.58C11.842 5.01 7.895 9.473 0 7.221V.641z"/>
        <path fill="#F0F0F0" d="M3.221 4.432A1.926 1.926 0 0 1 4.79 2.495a2.19 2.19 0 0 0-.431 0 1.937 1.937 0 0 0-2 1.916 2.105 2.105 0 0 0 2 2.105c.145 0 .29-.018.431-.053a2 2 0 0 1-1.568-2.031zM5.79 2.537l.136.431h.463l-.368.306.137.42-.369-.283-.368.294.137-.442-.369-.252h.464z"/>
        <path fill="#F0F0F0" d="M4.674 3.453l.137.431h.463l-.369.284.137.432-.368-.263-.369.274.148-.4-.38-.316h.464zM6.905 3.305l.137.421h.463l-.368.316.137.421-.369-.252-.368.305.137-.453-.358-.263h.463zM6.474 4.632l.137.42h.463l-.369.306.137.42-.368-.23-.369.305.137-.453-.368-.242h.463zM5.105 4.726l.158.432h.463l-.368.295.137.431-.369-.252-.368.284.137-.442-.369-.263h.463z"/>
    </g>
</svg>
