<svg xmlns="http://www.w3.org/2000/svg" width="20" height="15" viewBox="0 0 20 15">
    <g fill="none" fill-rule="nonzero">
        <path fill="#D80027" d="M0 .642c7.895 2.21 11.842-2.21 19.737 0V13.8C11.842 11.579 7.895 16 0 13.8V.642z"/>
        <path fill="#0052B4" d="M0 .642c7.895 2.21 11.842-2.21 19.737 0v4.38C11.842 2.81 7.895 7.231 0 5.021V.641zM0 9.41c7.895 2.211 11.842-2.21 19.737 0v4.39C11.842 11.579 7.895 16 0 13.8V9.41z"/>
        <path fill="#F0F0F0" d="M11.695 7.968v-.684l-.453.084v-.936l-.453-.4-.452.515v-.915l-.474-.369-.452.526v.916l-.464-.39-.452.517v.915l-.453.064v.61l-.453.053v.684c1.832-.21 2.748-.39 4.58-.61v-.632l-.474.052z"/>
    </g>
</svg>
