<?xml version="1.0" encoding="UTF-8"?>
<svg width="42px" height="42px" viewBox="0 0 42 42" version="1.1" xmlns="http://www.w3.org/2000/svg" xmlns:xlink="http://www.w3.org/1999/xlink">
    <!-- Generator: Sketch 49 (51002) - http://www.bohemiancoding.com/sketch -->
    <title>Social/Youtube</title>
    <desc>Created with Sketch.</desc>
    <defs></defs>
    <g id="GUI" stroke="none" stroke-width="1" fill="none" fill-rule="evenodd">
        <g id="Social" transform="translate(-62.000000, -11.000000)">
            <g id="Social/Youtube" transform="translate(63.000000, 12.000000)">
                <g>
                    <circle id="Oval" stroke="#FFFFFF" opacity="0.1" cx="20" cy="20" r="20"></circle>
                    <path d="M26.3138777,17.9284533 C26.3138777,17.9284533 26.4382603,18.9572265 26.4382603,19.9856025 L26.4382603,20.9500278 C26.4382603,21.978801 26.3138777,23.007177 26.3138777,23.007177 C26.3138777,23.007177 26.1922159,23.8830245 25.8194568,24.2687151 C25.3464143,24.7751575 24.8162334,24.7775408 24.5732986,24.8073315 C22.8327196,24.9360275 20.2191301,24.9399996 20.2191301,24.9399996 C20.2191301,24.9399996 16.9851825,24.9098116 15.9901216,24.812098 C15.7133704,24.7592691 15.091846,24.7751575 14.6184148,24.2687151 C14.2456556,23.8830245 14.1243826,23.007177 14.1243826,23.007177 C14.1243826,23.007177 14,21.978801 14,20.9500278 L14,19.9856025 C14,18.9572265 14.1243826,17.9284533 14.1243826,17.9284533 C14.1243826,17.9284533 14.2456556,17.0526058 14.6184148,16.6669152 C15.091846,16.1604727 15.6216382,16.1580895 15.8649617,16.128696 C17.6055407,16 20.2164093,16 20.2164093,16 L20.221851,16 C20.221851,16 22.8327196,16 24.5732986,16.128696 C24.8162334,16.1580895 25.3464143,16.1604727 25.8194568,16.6669152 C26.1922159,17.0526058 26.3138777,17.9284533 26.3138777,17.9284533 Z M18.9348798,22.1186188 L22.2951535,20.3391192 L18.9344911,18.5473061 L18.9348798,22.1186188 Z" id="Combined-Shape" fill="#FFFFFF"></path>
                </g>
            </g>
        </g>
    </g>
</svg>