<?xml version="1.0" encoding="UTF-8"?>
<svg width="20px" height="20px" viewBox="0 0 20 20" version="1.1" xmlns="http://www.w3.org/2000/svg" xmlns:xlink="http://www.w3.org/1999/xlink">
    <!-- Generator: Sketch 49.2 (51160) - http://www.bohemiancoding.com/sketch -->
    <title>Menu/Icon/Support</title>
    <desc>Created with Sketch.</desc>
    <defs></defs>
    <g id="Menu/Icon/Support" stroke="none" stroke-width="1" fill="none" fill-rule="evenodd">
        <g>
            <path d="M10.9908596,14.7662732 C10.9908596,14.8955241 10.8895604,15 10.7642393,15 L9.22662034,15 C9.10152591,15 9,14.8955241 9,14.7662732 L9,13.2337268 C9,13.1044759 9.10152591,13 9.22662034,13 L10.7642393,13 C10.8895604,13 10.9908596,13.1044759 10.9908596,13.2337268 L10.9908596,14.7662732 Z M12.6025753,9.73374186 C12.4504211,9.94193795 12.1843497,10.1933359 11.7701256,10.5021831 L11.3851804,10.7889697 C11.212387,10.9174263 11.1022312,11.0599004 11.0479933,11.2248947 C11.0232743,11.2986595 10.9930354,11.4537725 10.9887156,11.7734201 C10.9867957,11.8991191 10.8799998,12 10.7487248,12 L9.27374144,12 C9.20870393,12 9.14630633,11.9747223 9.10094807,11.9296821 C9.0558298,11.8848717 9.03159073,11.8244351 9.03375065,11.7621601 C9.05654977,11.1426273 9.11918737,10.7191115 9.22502331,10.4670241 C9.33613904,10.202298 9.58925093,9.91803907 10.0171545,9.59793183 L10.4181791,9.29758713 C10.525455,9.22106473 10.6130516,9.13581003 10.681929,9.04021448 C10.7973646,8.88648028 10.8537624,8.72424358 10.8537624,8.54408273 C10.8537624,8.32669475 10.7889649,8.13412486 10.65601,7.95511298 C10.5434543,7.80321716 10.3125832,7.72623516 9.96987632,7.72623516 C9.63532916,7.72623516 9.40949783,7.82229031 9.27942282,8.01945615 C9.12726866,8.25178093 9.0533515,8.4845653 9.0533515,8.73136729 C9.0533515,8.85821524 8.94583563,8.9611643 8.81336071,8.9611643 L7.23998111,8.9611643 C7.17470362,8.9611643 7.11206602,8.93565684 7.06670776,8.89038682 C7.02158949,8.84534661 6.99735043,8.7844504 7.00023031,8.72171582 C7.04678853,7.65706626 7.44853311,6.88678667 8.19346451,6.43247798 C8.65904664,6.14546151 9.23406456,6 9.90195893,6 C10.7685657,6 11.5034174,6.20405975 12.0863551,6.60620452 C12.6925718,7.02512447 13,7.64902336 13,8.46043661 C12.99976,8.95909613 12.8651252,9.38881655 12.6025753,9.73374186 Z" id="Shape" fill="#FFFFFF" fill-rule="nonzero"></path>
            <path d="M2.11111111,19 L10,19 C14.9705627,19 19,14.9705627 19,10 C19,5.02943725 14.9705627,1 10,1 C5.02943725,1 1,5.02943725 1,10 C1,11.4569524 1.34577029,12.8620893 1.99943572,14.126564 L2.11111111,14.342593 L2.11111111,19 Z" id="Combined-Shape" stroke="#FFFFFF" stroke-width="2"></path>
        </g>
    </g>
</svg>