<svg xmlns="http://www.w3.org/2000/svg" xmlns:xlink="http://www.w3.org/1999/xlink" width="40" height="40" viewBox="0 0 40 40">
    <defs>
        <circle id="a" cx="20" cy="20" r="20"/>
    </defs>
    <g fill="none" fill-rule="evenodd">
        <path fill="#D8D8D8" fill-opacity="0" d="M0 0h40v40H0z"/>
        <g>
            <use fill="#FFF" xlink:href="#a"/>
            <circle cx="20" cy="20" r="19.5" stroke="#FFF"/>
        </g>
        <path fill="#282B3E" d="M26.314 17.928s.124 1.03.124 2.058v.964c0 1.029-.124 2.057-.124 2.057s-.122.876-.495 1.262c-.473.506-1.003.509-1.246.538-1.74.129-4.354.133-4.354.133s-3.234-.03-4.229-.128c-.277-.053-.898-.037-1.372-.543-.372-.386-.494-1.262-.494-1.262S14 21.98 14 20.95v-.964c0-1.029.124-2.058.124-2.058s.122-.875.494-1.261c.474-.507 1.004-.509 1.247-.538C17.605 16 20.216 16 20.216 16h.006s2.61 0 4.351.129c.243.03.773.031 1.246.538.373.386.495 1.261.495 1.261zm-7.38 4.19l3.361-1.779-3.36-1.792v3.572z"/>
    </g>
</svg>
