<svg xmlns="http://www.w3.org/2000/svg" xmlns:xlink="http://www.w3.org/1999/xlink" width="121" height="122" viewBox="0 0 121 122">
    <defs>
        <path id="a" d="M94.924 25.338l9.881-9.731-2.377-9.244L39.068.998.292 39.823l3.287 59.928 45.994 32.84 69.284 7.116 20.473-49.572-2.533-54.778-6.97 1.13-13.57 13.415z"/>
        <path id="c" d="M44.607 18.617L56.2 7.02 45.814.155 18.708 5.523.55 41.382l20.638 37.524 35.994 4.03 25.044-21.983 1.644-24.67-3.797-7.014-13.346 13.094z"/>
    </defs>
    <g fill="none" fill-rule="evenodd" transform="translate(-18 -4)">
        <mask id="b" fill="#fff">
            <use xlink:href="#a"/>
        </mask>
        <path fill="#ffffff" fill-rule="nonzero" d="M76.428 125.3c-32.281 0-58.44-26.166-58.44-58.435 0-32.268 26.159-58.434 58.44-58.434 32.283 0 58.438 26.165 58.438 58.434 0 32.27-26.155 58.434-58.438 58.434zm0-12.96c25.089 0 45.432-20.351 45.432-45.475 0-25.123-20.343-45.474-45.432-45.474-25.087 0-45.433 20.352-45.433 45.474 0 25.122 20.346 45.474 45.433 45.474z" mask="url(#b)"/>
        <ellipse cx="76.774" cy="66" fill="#00BF66" rx="34.624" ry="34.5"/>
        <g transform="translate(31.613 25.5)">
            <mask id="d" fill="#fff">
                <use xlink:href="#c"/>
            </mask>
            <path fill="#ffffff" fill-rule="nonzero" d="M44.815 77.21c-19.81 0-35.858-16.053-35.858-35.845 0-19.791 16.047-35.845 35.858-35.845 19.81 0 35.858 16.054 35.858 35.845 0 19.792-16.048 35.846-35.858 35.846zm0-12.96c12.615 0 22.851-10.24 22.851-22.885 0-12.645-10.236-22.885-22.851-22.885-12.616 0-22.852 10.24-22.852 22.885 0 12.646 10.236 22.886 22.852 22.886z" mask="url(#d)"/>
        </g>
        <g fill="#ffffff" fill-rule="nonzero">
            <path d="M76.445 76.03l-9.214-9.147 55.013-55.028 9.215 9.147z"/>
            <path d="M128.764 14.539h9.539v12.96h-22.545V4.967h13.006z"/>
        </g>
    </g>
</svg>
