<?xml version="1.0" encoding="utf-8" ?>
<svg xmlns="http://www.w3.org/2000/svg" xmlns:xlink="http://www.w3.org/1999/xlink" width="79" height="18">
	<defs>
		<clipPath id="clip_0">
			<rect x="-91" y="-23" width="1280" height="3200" clip-rule="evenodd"/>
		</clipPath>
	</defs>
	<g clip-path="url(#clip_0)">
		<path fill="rgb(34,31,31)" stroke="none" transform="translate(-0.544083 0.703979)" d="M11.8544 14.6957L11.8544 4.12243L8.28008 12.2447L6.03516 12.2447L2.37702 4.101L2.37702 14.6957L0 14.6957L0 0L2.37702 0L7.14248 9.23914L11.8544 0L14.2314 0L14.2314 14.6957L11.8544 14.6957Z"/>
	</g>
	<defs>
		<clipPath id="clip_1">
			<rect x="-91" y="-23" width="1280" height="3200" clip-rule="evenodd"/>
		</clipPath>
	</defs>
	<g clip-path="url(#clip_1)">
		<path fill="rgb(34,31,31)" stroke="none" transform="translate(67.4959 4.3916)" d="M2.35247 6.19463L9.9424 6.19463C10.2623 4.59153 9.98715 3.03131 9.04467 1.77207C8.40098 0.911145 7.51554 0.372636 6.4186 0.13811C3.72233 -0.441131 1.28537 0.838258 0.399925 3.28899C-0.0173501 4.44233 -0.0989622 5.63125 0.112527 6.8176C0.227925 7.4663 0.446435 8.12357 0.755332 8.71396C2.23313 11.542 6.19482 11.7294 7.94597 10.4967C8.85248 9.94147 9.61683 8.99307 9.91344 7.81573C9.2193 7.68496 8.62915 7.57992 7.9859 7.45987C7.86524 7.7527 7.82356 7.84874 7.61119 8.18917C6.52215 9.81241 4.20323 9.54702 3.36429 8.75598C2.6504 8.0584 2.35949 7.29437 2.35247 6.19463ZM5.16546 1.84668C7.10397 1.84368 7.89552 3.13635 7.86612 4.58596L2.46392 4.58596C2.4999 2.87439 3.58762 1.84368 5.16546 1.84668Z" fill-rule="evenodd"/>
	</g>
	<defs>
		<clipPath id="clip_2">
			<rect x="-91" y="-23" width="1280" height="3200" clip-rule="evenodd"/>
		</clipPath>
	</defs>
	<g clip-path="url(#clip_2)">
		<path fill="rgb(34,31,31)" stroke="none" transform="translate(26.8145 4.22046)" d="M2.36009 11.18L0 11.18L0 0.230586L2.23112 0.230586L2.23112 1.74054C2.91765 0.580751 4.10515 0 5.79275 0C7.07983 0 8.0844 0.392168 8.8069 1.17436C9.52853 1.95741 9.89 2.98391 9.89 4.25599L9.89 11.18L7.50886 11.18L7.50886 4.80031C7.50886 2.96976 6.69379 2.0547 5.06278 2.0547C4.10515 2.0547 3.41423 2.32772 2.9931 2.87161C2.57022 3.41765 2.36009 3.92897 2.36009 4.80888L2.36009 11.18Z"/>
	</g>
	<defs>
		<clipPath id="clip_3">
			<rect x="-91" y="-23" width="1280" height="3200" clip-rule="evenodd"/>
		</clipPath>
	</defs>
	<g clip-path="url(#clip_3)">
		<path fill="rgb(34,31,31)" stroke="none" transform="translate(38.8246 4.505)" d="M7.50878 10.8989L7.50878 9.34088C6.80773 10.4727 5.64211 11.13 4.0119 11.13C2.76688 11.13 1.7877 10.7634 1.07218 10.0299C0.35754 9.29587 0 8.33421 0 7.14661L0 0L2.35976 0L2.35976 6.60168C2.35976 8.25103 3.15337 9.07592 4.74015 9.07592C6.48573 9.07592 7.35874 8.08983 7.35874 6.11936L7.35874 0L9.74 0L9.74 10.8989L7.50878 10.8989Z"/>
	</g>
	<defs>
		<clipPath id="clip_4">
			<rect x="-91" y="-23" width="1280" height="3200" clip-rule="evenodd"/>
		</clipPath>
	</defs>
	<g clip-path="url(#clip_4)">
		<path fill="rgb(34,31,31)" stroke="none" transform="translate(51.0819 -0.364502)" d="M2.38229 15.7641L0 15.7641L0 2.23929L2.38229 0L2.38229 15.7641Z"/>
	</g>
	<defs>
		<clipPath id="clip_5">
			<rect x="-91" y="-23" width="1280" height="3200" clip-rule="evenodd"/>
		</clipPath>
	</defs>
	<g clip-path="url(#clip_5)">
		<path fill="rgb(34,31,31)" stroke="none" transform="translate(56.0244 4.50476)" d="M0 10.8947L2.38273 10.8947L2.38273 0L0 0L0 10.8947Z"/>
	</g>
	<defs>
		<clipPath id="clip_6">
			<rect x="-91" y="-23" width="1280" height="3200" clip-rule="evenodd"/>
		</clipPath>
	</defs>
	<g clip-path="url(#clip_6)">
		<path fill="rgb(34,31,31)" stroke="none" transform="translate(60.2951 -0.24292)" d="M6.50038 2.05303C4.43366 1.4496 3.90655 3.1026 3.90655 4.38831L3.90655 4.78946L6.80366 4.78946L6.80366 6.77246L3.90655 6.77246L3.90655 15.6426L1.52426 15.6426L1.52426 6.77246L0 6.77246L0 4.78946L1.52426 4.78946L1.52426 4.49288C1.52426 1.92231 3.39393 -0.802973 7.03363 0.220884L7.08323 0.23417L6.50038 2.05303Z"/>
	</g>
	<defs>
		<clipPath id="clip_7">
			<rect x="-91" y="-23" width="1280" height="3200" clip-rule="evenodd"/>
		</clipPath>
	</defs>
	<g clip-path="url(#clip_7)">
		<path fill="rgb(34,31,31)" stroke="none" transform="translate(55.7985 0.808228)" d="M1.4931 2.62157L1.34212 2.62157C0.601278 2.62157 0 2.034 0 1.31057C0 0.586714 0.601278 0 1.34212 0L1.4931 0C2.23438 0 2.83566 0.586714 2.83566 1.31057C2.83566 2.034 2.23438 2.62157 1.4931 2.62157"/>
	</g>
	<defs>
		<clipPath id="clip_8">
			<rect x="-91" y="-23" width="1280" height="3200" clip-rule="evenodd"/>
		</clipPath>
	</defs>
	<g clip-path="url(#clip_8)">
		<path fill="rgb(34,31,31)" stroke="none" transform="translate(15.4601 4.27917)" d="M7.02366 0.430435C8.45005 0.997435 9.25585 2.03243 9.25585 3.50886L9.25585 11.0594L7.02366 11.0594L7.02366 9.50158C6.88146 9.73172 6.71688 9.94258 6.53298 10.1341L6.53123 10.1389C6.52333 10.147 6.51367 10.1534 6.50533 10.162C5.82637 10.8576 4.87749 11.2789 3.68986 11.3213C3.65519 11.323 3.62008 11.3239 3.58628 11.3247C3.55293 11.3256 3.52045 11.3273 3.48621 11.3273L3.48753 11.323C2.4816 11.3191 1.5099 10.99 0.884481 10.3287C-0.551564 8.81115 -0.204402 6.41458 1.67492 5.48372C2.34861 5.15029 3.13115 5.01101 3.87639 4.83272C4.55315 4.67201 5.25274 4.60858 5.92995 4.44829C6.44345 4.32615 6.94993 4.12429 7.02454 3.49986C7.0952 2.90158 6.73663 2.30372 6.1077 2.04015C4.95518 1.55886 3.04425 1.56486 2.34159 3.33829C2.28893 3.47115 2.21563 3.59543 2.12566 3.77844C1.4287 3.61986 0.80592 3.47886 0.143636 3.32844C0.636948 1.71229 1.61655 0.666149 3.21279 0.224721C4.50093 -0.130994 5.77985 -0.0658508 7.02366 0.430435ZM3.21323 6.75958C2.59878 7.07029 2.25557 7.47615 2.34949 8.21972C2.41445 8.73143 2.84544 9.17029 3.48973 9.33658C4.16956 9.51443 5.78204 9.41158 6.67343 7.99601C6.94799 7.4388 6.94764 6.85308 6.94732 6.33762C6.94729 6.27385 6.94725 6.21115 6.94773 6.14972L6.94773 5.98258C6.94685 5.91144 6.9451 5.83858 6.94246 5.76572C5.85051 6.04815 4.72213 6.31686 3.67011 6.59201C3.51343 6.63229 3.35674 6.68586 3.21323 6.75958Z" fill-rule="evenodd"/>
	</g>
</svg>
