<svg xmlns="http://www.w3.org/2000/svg" xmlns:xlink="http://www.w3.org/1999/xlink" width="240" height="102" viewBox="0 0 240 102">
    <defs>
        <path id="a" d="M.493.379H32.92v10.03H.493z"/>
    </defs>
    <g fill="none" fill-rule="evenodd">
        <path fill="#B6FFD5" d="M52.088 31.648c.364 0 .66-.332.66-.741v-2.473c0-.41-.296-.742-.66-.742-.364 0-.66.332-.66.742v2.473c0 .41.296.741.66.741M52.088 25.055a.66.66 0 0 0 .66-.66v-1.318a.66.66 0 0 0-1.32 0v1.319c0 .364.296.659.66.659"/>
        <path fill="#31FF8E" d="M58.681 19.78c-.363 0-.659.32-.659.713v10.444c0 .393.296.711.66.711.364 0 .659-.318.659-.711V20.493c0-.394-.295-.713-.66-.713M58.681 11.868c-.363 0-.659.354-.659.791v3.692c0 .438.296.792.66.792.364 0 .659-.354.659-.792V12.66c0-.437-.295-.79-.66-.79"/>
        <path fill="#FFF" d="M65.275 31.648a.66.66 0 0 0 .66-.659v-5.275a.66.66 0 1 0-1.32 0v5.275c0 .364.296.66.66.66M71.868 31.648c.364 0 .66-.337.66-.753V11.303c0-.416-.296-.754-.66-.754-.364 0-.66.338-.66.754v19.592c0 .416.296.753.66.753"/>
        <path fill="#31FF8E" d="M78.462 30.33c.363 0 .659-.332.659-.742V15.247c0-.41-.296-.742-.66-.742-.364 0-.659.332-.659.742v14.341c0 .41.295.742.66.742"/>
        <path fill="#FFF" d="M85.055 31.648a.66.66 0 0 0 .66-.659v-5.275a.66.66 0 0 0-1.32 0v5.275c0 .364.296.66.66.66M85.055 22.418c.364 0 .66-.38.66-.848v-2.261c0-.468-.296-.847-.66-.847-.364 0-.66.379-.66.847v2.26c0 .469.296.849.66.849"/>
        <path fill="#B6FFD5" d="M90.33 0c-.364 0-.66.337-.66.753v30.142c0 .417.296.753.66.753.364 0 .659-.336.659-.753V.753c0-.416-.295-.753-.66-.753"/>
        <path fill="#FFF" d="M96.923 9.23c-.364 0-.66.351-.66.783v20.854c0 .431.296.781.66.781.364 0 .66-.35.66-.781V10.013c0-.432-.296-.782-.66-.782M104.835 30.33c.364 0 .66-.314.66-.702V16.526c0-.387-.296-.702-.66-.702-.364 0-.66.315-.66.702v13.102c0 .388.296.702.66.702"/>
        <path fill="#B6FFD5" d="M111.429 31.648c.363 0 .659-.337.659-.753V11.303c0-.416-.296-.754-.66-.754-.363 0-.659.338-.659.754v19.592c0 .416.296.753.66.753"/>
        <path fill="#FFF" d="M116.703 31.648a.66.66 0 0 0 .66-.659v-5.275a.66.66 0 0 0-1.319 0v5.275c0 .364.296.66.66.66M121.978 31.648c.364 0 .66-.354.66-.79v-16.88c0-.437-.296-.791-.66-.791-.364 0-.66.354-.66.79v16.88c0 .437.296.791.66.791M121.978 11.868c.364 0 .66-.332.66-.742V8.654c0-.41-.296-.742-.66-.742-.364 0-.66.332-.66.742v2.472c0 .41.296.742.66.742"/>
        <path fill="#31FF8E" d="M128.571 19.78c-.364 0-.659.32-.659.713v10.444c0 .393.295.711.66.711.364 0 .659-.318.659-.711V20.493c0-.394-.295-.713-.66-.713"/>
        <path fill="#FFF" d="M135.165 31.648c.364 0 .66-.354.66-.79v-16.88c0-.437-.296-.791-.66-.791-.364 0-.66.354-.66.79v16.88c0 .437.296.791.66.791M141.758 31.648c.364 0 .66-.354.66-.79v-3.693c0-.437-.296-.791-.66-.791-.364 0-.66.354-.66.791v3.692c0 .437.296.791.66.791M141.758 25.055c.364 0 .66-.38.66-.848v-2.26c0-.468-.296-.848-.66-.848-.364 0-.66.38-.66.848v2.26c0 .468.296.848.66.848M149.67 30.33c.364 0 .66-.335.66-.748V8.66c0-.413-.296-.748-.66-.748-.363 0-.659.335-.659.748v20.922c0 .413.296.748.66.748M154.945 31.648c.364 0 .66-.321.66-.719v-9.11c0-.398-.296-.72-.66-.72-.364 0-.66.322-.66.72v9.11c0 .398.296.72.66.72M161.538 31.648c.364 0 .66-.332.66-.741V20.522c0-.41-.296-.742-.66-.742-.364 0-.659.333-.659.742v10.385c0 .41.295.741.66.741M161.538 17.143c.364 0 .66-.332.66-.742v-2.473c0-.41-.296-.741-.66-.741-.364 0-.659.332-.659.741v2.473c0 .41.295.742.66.742M166.813 31.648c.364 0 .66-.332.66-.741v-6.429c0-.41-.296-.742-.66-.742-.364 0-.66.332-.66.742v6.429c0 .41.296.741.66.741"/>
        <path fill="#B6FFD5" d="M173.407 30.33c.363 0 .659-.322.659-.72V15.226c0-.398-.296-.72-.66-.72-.364 0-.659.322-.659.72V29.61c0 .397.295.719.66.719"/>
        <path fill="#31FF8E" d="M180 31.648c.364 0 .66-.354.66-.79v-3.693c0-.437-.296-.791-.66-.791-.364 0-.66.354-.66.791v3.692c0 .437.296.791.66.791M180 25.055a.66.66 0 0 0 .66-.66v-1.318a.66.66 0 0 0-1.32 0v1.318c0 .365.296.66.66.66"/>
        <path fill="#FFF" d="M187.912 27.692c-.364 0-.66.332-.66.742v2.473c0 .41.296.741.66.741.364 0 .66-.332.66-.741v-2.473c0-.41-.296-.742-.66-.742M4.615 60.66C2.067 60.66 0 62.9 0 65.666v29.545c0 2.765 2.067 5.008 4.615 5.008 2.55 0 4.616-2.243 4.616-5.008V65.667c0-2.766-2.066-5.008-4.616-5.008M199.78 36.923c-2.55 0-4.615 2.226-4.615 4.97v54.675c0 2.745 2.066 4.97 4.615 4.97 2.55 0 4.616-2.225 4.616-4.97V41.894c0-2.745-2.067-4.97-4.616-4.97"/>
        <g transform="translate(207.033 35.604)">
            <mask id="b" fill="#fff">
                <use xlink:href="#a"/>
            </mask>
            <path fill="#FFF" d="M5.56 10.41h22.294c2.798 0 5.067-2.246 5.067-5.015 0-2.77-2.269-5.016-5.067-5.016H5.56C2.76.379.493 2.625.493 5.395c0 2.769 2.268 5.015 5.067 5.015" mask="url(#b)"/>
        </g>
        <path fill="#FFF" d="M213.387 72.527h17.622c2.78 0 5.035-2.066 5.035-4.615 0-2.549-2.254-4.615-5.035-4.615h-17.622c-2.782 0-5.035 2.066-5.035 4.615 0 2.549 2.253 4.615 5.035 4.615M235.055 90.989h-21.758c-2.731 0-4.945 2.066-4.945 4.615 0 2.549 2.214 4.616 4.945 4.616h21.758c2.731 0 4.945-2.067 4.945-4.616 0-2.549-2.214-4.615-4.945-4.615M55.337 42.592a5.05 5.05 0 0 0-1.24-4.07 4.762 4.762 0 0 0-6.852-.277L27.708 56.773 8.138 38.242a4.762 4.762 0 0 0-6.853.283c-1.816 2.02-1.692 5.167.276 7.03l22.45 21.258a4.76 4.76 0 0 0 3.287 1.318c.138 0 .275-.009.412-.021.138.012.276.021.413.021a4.765 4.765 0 0 0 3.29-1.321L45.658 53.3l.03 43.183c.001 2.747 2.172 5.055 4.848 5.055h.003c2.678 0 4.848-2.314 4.846-5.062l-.037-53.655c0-.077-.008-.152-.011-.229M139.002 39.957c-1.066-2.5-4.031-3.693-6.624-2.665-2.592 1.026-3.83 3.885-2.765 6.384l22.814 53.51c.806 1.89 2.699 3.034 4.696 3.034.643 0 1.296-.118 1.927-.368 2.593-1.027 3.83-3.886 2.766-6.385l-22.814-53.51zM182.7 37.284c-2.647-1.023-5.656.203-6.723 2.736L161.256 74.96c-1.068 2.534.211 5.416 2.857 6.439.633.244 1.288.36 1.931.36 2.045 0 3.98-1.17 4.792-3.097l14.721-34.938c1.068-2.534-.212-5.417-2.857-6.439M74.292 79.774c-4.418-8.351-3.388-18.844 2.563-26.11 5.824-7.112 15.168-9.944 23.805-7.215 2.514.794 5.175-.664 5.944-3.256.769-2.593-.647-5.338-3.16-6.132-12.286-3.882-25.579.147-33.865 10.265-8.597 10.498-10.028 25.078-3.645 37.145.29.55.668 1.02 1.106 1.402 1.457 1.269 3.578 1.558 5.353.56 2.308-1.296 3.158-4.278 1.899-6.659M124.391 52.84c-1.203-2.452-4.101-3.434-6.472-2.192-2.372 1.243-3.319 4.238-2.115 6.691 4.152 8.464 3.01 18.615-2.908 25.86-6.099 7.467-15.82 10.249-24.767 7.088-2.517-.89-5.253.498-6.112 3.1-.659 1.998-.02 4.13 1.452 5.415.445.39.967.7 1.551.907 12.728 4.498 26.559.54 35.235-10.081 8.42-10.308 10.043-24.748 4.136-36.789"/>
    </g>
</svg>
