<svg xmlns="http://www.w3.org/2000/svg" xmlns:xlink="http://www.w3.org/1999/xlink" width="116" height="21" viewBox="0 0 116 21">
    <defs>
        <path id="a" d="M.145.214h11.39V11H.144z"/>
        <path id="c" d="M.393.197h12.18V11H.393z"/>
        <path id="e" d="M0 21h116V0H0z"/>
    </defs>
    <g fill="none" fill-rule="evenodd">
        <path fill="#00673E" d="M50 6v.711h-.465c-1.749 0-2.24.515-2.24 2.324v8.934c0 1.807.491 2.32 2.24 2.32H50V21h-8.631v-.71h.467c1.751 0 2.24-.514 2.24-2.32V8.275h-.047L37.779 21h-.724L30.779 8.497h-.048v9.472c0 1.807.49 2.32 2.242 2.32h.324V21h-6.274v-.71h.326c1.728 0 2.216-.514 2.216-2.32V9.034c0-1.81-.488-2.324-2.216-2.324H27V6h6.064l5.437 10.898L43.89 6H50z"/>
        <g transform="translate(50 10)">
            <mask id="b" fill="#fff">
                <use xlink:href="#a"/>
            </mask>
            <path fill="#00673E" d="M6.468 5.008c-2.082.651-1.94.586-2.627.976a2.402 2.402 0 0 0-.781.718 1.477 1.477 0 0 0-.216.782c0 .909.688 1.644 1.516 1.644.594 0 1.633-.497 2.25-1.035v-3.13l-.143.045zm5.066 4.078c-.261.393-.733.89-1.206 1.238A3.186 3.186 0 0 1 8.41 11c-1.066 0-1.8-.652-1.8-1.585v-.24c-.617.542-1.563 1.13-2.441 1.52A3.138 3.138 0 0 1 2.82 11C1.188 11 .145 9.915.145 8.241c0-.71.333-1.43.854-1.909.688-.608 1.585-1.04 3.291-1.58l2.13-.656.19-.064V2.668c0-1.155-.45-1.587-1.68-1.587-1.041 0-1.658.393-1.658 1.086 0 .02 0 .13.022.3v.109c0 .737-.474 1.193-1.23 1.193-.735 0-1.232-.456-1.232-1.124C.833 1.211 2.631.214 5.165.214c1.469 0 2.678.278 3.434.822.568.438.829.954.851 1.844V8.026c0 .735.023.827.073 1a.416.416 0 0 0 .166.236c.07.063.164.085.285.085.33 0 .755-.28 1.182-.76l.378.5z" mask="url(#b)"/>
        </g>
        <path fill="#00673E" d="M65.364 11.588C66.595 10.53 67.877 10 69.134 10c1.403 0 2.612.71 3.015 1.792.236.624.309 1.358.309 2.9v3.916c0 1.314.284 1.658 1.326 1.658H74V21h-5.861v-.734h.119c1.068 0 1.352-.344 1.352-1.658V14.88c0-1.617-.072-2.005-.359-2.444a1.553 1.553 0 0 0-1.254-.62c-.877 0-1.781.348-2.633 1.012v5.78c0 1.314.286 1.658 1.328 1.658h.38V21H61.02v-.734h.145c1.043 0 1.327-.344 1.327-1.658v-4.725c0-.985-.048-1.425-.19-1.767-.167-.348-.475-.528-.875-.528-.122 0-.24 0-.428.044v-.825L64.367 10h.997v1.588z"/>
        <g transform="translate(74 10)">
            <mask id="d" fill="#fff">
                <use xlink:href="#c"/>
            </mask>
            <path fill="#00673E" d="M11.066 7.261l.024.952c.02.75.249 1.062.796 1.062.139 0 .433-.064.687-.132v.772L9.216 11h-.91V9.413C7.14 10.431 5.845 11 4.66 11c-1.461 0-2.69-.929-2.985-2.22-.16-.659-.185-.953-.185-2.583v-3.67c0-1.176-.273-1.61-1.096-1.61v-.72h3.853v6.39c0 1.444.114 1.85.571 2.238.277.247.664.386 1.095.386.524 0 .913-.116 1.575-.478.434-.228.548-.295.82-.52V2.527c0-1.266-.272-1.61-1.275-1.61H6.55v-.72h4.515V7.26z" mask="url(#d)"/>
        </g>
        <path fill="#00673E" d="M90.605 18.724c0 1.208.3 1.578 1.326 1.578H92V21h-5.875v-.698h.07c1.127 0 1.399-.328 1.399-1.578v-9.09c0-1.135-.028-1.532-.151-1.84-.121-.328-.499-.544-.921-.544h-.225c-.024 0-.074 0-.15.022L86 6.543 89.584 6h1.021v12.724zM95.174 9.154c-.919 0-1.656-.7-1.656-1.579 0-.875.737-1.575 1.656-1.575.917 0 1.655.7 1.655 1.575 0 .879-.756 1.58-1.655 1.58zM92.047 21v-.698h.366c1.013 0 1.29-.328 1.29-1.578v-4.579c0-.965-.046-1.378-.185-1.686-.162-.35-.462-.528-.852-.528-.182 0-.298.022-.48.089L92 11.302l3.519-.767h.966v8.19c0 1.25.272 1.577 1.285 1.577H98V21h-5.953zM99 21v-.698h.441c.972 0 1.24-.328 1.24-1.578v-6.508H99v-1.245h1.68v-.331c0-2.691 2.078-4.64 4.933-4.64C107.05 6 108 6.633 108 7.62c0 .725-.513 1.227-1.306 1.227-.417 0-.796-.244-1.149-.768l-.222-.309c-.266-.416-.51-.566-.885-.566-.508 0-.886.353-.992.898-.091.328-.113.659-.113 1.403v1.466h1.969v1.245h-1.969v6.508c0 1.25.264 1.578 1.262 1.578h.707V21H99z"/>
        <path fill="#00673E" d="M112.738 13.519v-.176c0-1.441-.739-2.372-1.86-2.372-1.284 0-2.164.974-2.306 2.548h4.166zM116 17.124c-.24.843-.883 1.838-1.739 2.613A4.749 4.749 0 0 1 111 21c-2.927 0-4.999-2.283-4.999-5.532 0-3.282 2.092-5.468 5.214-5.468 2.807 0 4.642 1.746 4.642 4.4v.246h-7.26c.165 2.368 1.64 4.009 3.615 4.009 1.312 0 2.526-.71 3.218-1.842l.571.311z"/>
        <mask id="f" fill="#fff">
            <use xlink:href="#e"/>
        </mask>
        <path fill="#00673E" d="M0 21h21V0H0z" mask="url(#f)"/>
        <path fill="#FFF" d="M18 4l-3 2.963V19l3-2.966zM13 4l-3 2.963V19l3-2.965zM8 4L5 6.962V19l3-2.96z" mask="url(#f)"/>
    </g>
</svg>
