<svg xmlns="http://www.w3.org/2000/svg" width="79" height="21" viewBox="0 0 79 21">
    <g fill="#221F1F" fill-rule="evenodd">
        <path d="M12.31 18.4V7.826L8.736 15.95H6.491L2.833 7.805V18.4H.456V3.704h2.377l4.765 9.24 4.712-9.24h2.377V18.4zM76.364 11.976c.03-1.45-.762-2.741-2.701-2.738-1.579-.003-2.667 1.027-2.703 2.738h5.404zm2.077 1.608h-7.592c.007 1.099.298 1.863 1.012 2.56.84.79 3.159 1.056 4.248-.567.213-.34.254-.436.375-.729.643.12 1.234.225 1.928.356a4.443 4.443 0 0 1-1.968 2.68c-1.752 1.232-5.714 1.045-7.193-1.782a6.649 6.649 0 0 1-.643-1.896 6.749 6.749 0 0 1 .288-3.527c.886-2.45 3.323-3.728 6.02-3.15 1.097.235 1.983.773 2.627 1.634.943 1.259 1.218 2.818.898 4.42zM30.176 18.4h-2.361V7.45h2.232v1.51c.687-1.16 1.875-1.74 3.563-1.74 1.288 0 2.293.392 3.016 1.174.722.783 1.083 1.81 1.083 3.081V18.4h-2.382v-6.38c0-1.83-.815-2.745-2.447-2.745-.958 0-1.65.273-2.07.817-.424.546-.634 1.057-.634 1.937v6.37zM47.337 18.4v-1.558c-.702 1.132-1.868 1.789-3.499 1.789-1.245 0-2.225-.367-2.94-1.1-.716-.734-1.073-1.695-1.073-2.882V7.505h2.36v6.6c0 1.648.794 2.472 2.382 2.472 1.746 0 2.62-.985 2.62-2.955V7.505h2.382V18.4h-2.232zM54.464 18.4h-2.382V4.875l2.382-2.24zM57.024 18.4h2.383V7.504h-2.383zM67.795 4.81c-2.066-.603-2.593 1.05-2.593 2.335v.402h2.897V9.53h-2.897v8.87h-2.383V9.53h-1.524V7.547h1.524V7.25c0-2.57 1.87-5.296 5.51-4.272l.05.013-.584 1.82zM58.292 6.43h-.151c-.741 0-1.342-.588-1.342-1.311 0-.724.6-1.31 1.342-1.31h.15c.742 0 1.343.586 1.343 1.31 0 .723-.601 1.31-1.342 1.31M18.81 15.499c-.094-.744.249-1.15.863-1.46.144-.074.3-.128.457-.168 1.052-.275 2.18-.544 3.273-.826l.005.217v.167c-.005.558.034 1.22-.274 1.846-.892 1.416-2.504 1.519-3.184 1.34-.644-.166-1.075-.604-1.14-1.116zm6.906-4.711c0-1.476-.806-2.511-2.232-3.078a5.85 5.85 0 0 0-3.811-.206c-1.596.441-2.576 1.487-3.07 3.104l1.983.45c.09-.183.163-.308.216-.44.702-1.774 2.613-1.78 3.766-1.299.629.264.987.862.917 1.46-.075.624-.581.826-1.095.948-.677.16-1.377.224-2.053.385-.746.178-1.528.317-2.202.65-1.88.932-2.226 3.328-.79 4.846.625.661 1.597.99 2.603.994l-.002.004.1-.002.104-.004c1.188-.042 2.137-.463 2.815-1.159l.026-.023.002-.005c.184-.191.349-.402.49-.632v1.558h2.233V10.788z"/>
    </g>
</svg>
