<?xml version="1.0" encoding="UTF-8"?>
<svg width="20px" height="20px" viewBox="0 0 20 20" version="1.1" xmlns="http://www.w3.org/2000/svg" xmlns:xlink="http://www.w3.org/1999/xlink">
    <!-- Generator: Sketch 49.2 (51160) - http://www.bohemiancoding.com/sketch -->
    <title>Menu/Icon/Contact</title>
    <desc>Created with Sketch.</desc>
    <defs></defs>
    <g id="Symbols" stroke="none" stroke-width="1" fill="none" fill-rule="evenodd">
        <g id="Menu/Icon/Contact" fill="#424559" fill-rule="nonzero">
            <g id="M_Icon/Contact">
                <path d="M4.46970918,2.14167216 L2.30751654,4.39007566 C1.21051293,5.48707928 3.14359007,9.37870602 6.89453754,13.1296535 C10.6636808,16.8987967 14.5422438,18.808546 15.6770851,17.6737047 L17.8255727,15.5252171 C18.037229,15.3135608 18.037229,15.0004119 17.8255727,14.7887556 L15.6770851,12.640268 C15.4654288,12.4286117 15.1522799,12.4286117 14.9406235,12.640268 L12.7203805,14.860511 L12.0817439,14.5522037 C9.35686191,13.2367434 6.70761658,10.5610056 5.5030179,7.87382397 L5.22920614,7.26301314 L5.69023774,6.77771672 L7.34095328,5.04059773 C7.54323821,4.83831281 7.54323821,4.56733621 7.32724823,4.37609925 L5.1871651,2.1504128 C4.97560979,1.94400593 4.6660145,1.94563594 4.46970918,2.14167216 Z M13.5285975,11.228242 C14.5200943,10.2367452 16.0976144,10.2367452 17.0891111,11.228242 L19.2375987,13.3767296 C20.2290955,14.3682263 20.2290955,15.9457464 19.2375987,16.9372432 L17.0891111,19.0857308 C14.7613066,21.4135353 10.0196362,19.0788041 5.48251152,14.5416795 C0.95895646,10.0181244 -1.39853544,5.27207561 0.881785473,2.99202606 L3.04397811,0.743622556 C4.03547485,-0.247874185 5.61299497,-0.247874185 6.60449171,0.743622556 L8.696751,2.92598049 C9.75384743,3.83206314 9.75384743,5.45175562 8.77084428,6.43429482 L7.61831139,7.64748734 C8.62766113,9.50429609 10.4402206,11.3383874 12.3307047,12.4261348 L13.5285975,11.228242 Z"></path>
            </g>
        </g>
    </g>
</svg>
